# xmcd
#
# Track frame offsets:
#	150
#	22272
#	37899
#	55201
#	83223
#	100465
#	117977
#	135309
#	154191
#	200913
#	217880
#	238067
#	260899
#	279756
#	297058
#	315055
#
# Disc length: 4506 seconds
#
# Revision: 0
# Processed by: cddbd v1.5.2PL0 Copyright (c) Steve Scherf et al.
# Submitted via: EasyCDDAExtractor 10.0.2.1
#
DISCID=e2119810
DTITLE=Various Artist - 2007 Mainstream Stepper Vol 2
DYEAR=2007
DGENRE=R&B
TTITLE0=Ali Ollie Woodson - Walk Away From Love
TTITLE1=Gerald Levert - D. J. Don't
TTITLE2=Gerald Levert - I Don't Get Down Like That
TTITLE3=Justin Timberlake - Take It From Here
TTITLE4=Joe - If I Was Your Man
TTITLE5=Anthony Hamilton w/Jaheim - Struggle No More
TTITLE6=Musiq Soulchild - Buddy
TTITLE7=Young Lloyd w/Lil' Wayne - You
TTITLE8=D. J. Freddie Mac - Keezo's Groove (Rmx)
TTITLE9=D. J. Rapheal - Give Me The Horns
TTITLE10=Jeff Hendricks - Fine
TTITLE11=Jill Scott w/Isley Bros. - Said Enough
TTITLE12=Bias B - Keep It Movin
TTITLE13=Hill St Soul - Matter Of Time
TTITLE14=Ty Causey - Step Out Tonight
TTITLE15=War  - Heartbeat (B-Dash Rmx)
EXTD=
EXTT0=
EXTT1=
EXTT2=
EXTT3=
EXTT4=
EXTT5=
EXTT6=
EXTT7=
EXTT8=
EXTT9=
EXTT10=
EXTT11=
EXTT12=
EXTT13=
EXTT14=
EXTT15=
PLAYORDER=
